
<!-- Generator: Adobe Illustrator 19.1.0, SVG Export Plug-In  -->
<svg class="mainSVG" version="1.1"
	 xmlns="http://www.w3.org/2000/svg" xmlns:xlink="http://www.w3.org/1999/xlink" xmlns:a="http://ns.adobe.com/AdobeSVGViewerExtensions/3.0/"
	 x="0px" y="0px" width="600px" height="600px" viewBox="0 0 600 600" enable-background="new 0 0 600 600" xml:space="preserve">
<defs>
</defs>

<path id="face" fill="none" stroke="#EDEDED" stroke-width="10" stroke-linecap="round" stroke-linejoin="round" stroke-miterlimit="10" d="
	M381,262c0,44.7-36.3,81-81,81s-81-36.3-81-81s36.3-81,81-81S381,217.3,381,262z"/>
<path id="happy" fill="none" stroke="#ededed" stroke-width="10" stroke-linecap="round" stroke-linejoin="round" stroke-miterlimit="10" d="
	M341.4,291.4C330.3,303,316.1,310,300.6,310c-16.1,0-30.7-7.5-42-19.9"/>
<g id="eyeGroup" stroke="#ededed">

		<ellipse fill="none" stroke-width="8.7559" stroke-linecap="round" stroke-linejoin="round" stroke-miterlimit="10" cx="278.5" cy="234" rx="11.5" ry="15"/>

		<ellipse fill="none" stroke-width="8.7559" stroke-linecap="round" stroke-linejoin="round" stroke-miterlimit="10" cx="321.5" cy="234" rx="11.5" ry="15"/>
</g>
<path id="sad" fill="none" stroke="none" stroke-width="10" stroke-linecap="round" stroke-linejoin="round" stroke-miterlimit="10" d="
	M341.4,308.7c-11.1-11.6-25.3-18.6-40.8-18.6c-16.1,0-30.7,7.5-42,19.9"/>
<path id="square" fill="none" stroke="none" stroke-width="10" stroke-linecap="round" stroke-linejoin="round" stroke-miterlimit="10" d="
	M383,347H217V181h166V347z"/>
</svg>
